<svg width="32" height="40" viewBox="0 0 32 40" fill="none" xmlns="http://www.w3.org/2000/svg">
<path d="M26.8331 30.8617L26.8331 30.8617C26.8293 30.8639 26.8249 30.8662 26.8138 30.8699C26.8003 30.8743 26.7725 30.882 26.7193 30.8909C26.5968 30.9112 26.4321 30.9243 26.1246 30.9468L26.1977 31.9441L26.1246 30.9468C25.6434 30.9821 25.1573 31 24.6667 31C13.8051 31 5 22.1949 5 11.3333C5 10.8427 5.01791 10.3566 5.05319 9.87543L4.05587 9.80231L5.05319 9.87543C5.07573 9.56793 5.08875 9.4032 5.10913 9.28073C5.11798 9.22749 5.1257 9.1997 5.13011 9.18622C5.13376 9.17508 5.1361 9.17069 5.13826 9.16693L5.1383 9.16686C5.16368 9.12276 5.23612 9.05537 5.28232 9.03309L5.28239 9.03306L5.2825 9.03302L5.28328 9.03274C5.28458 9.03229 5.28878 9.03089 5.29704 9.02893C5.3146 9.02477 5.34923 9.01837 5.41299 9.01294C5.55524 9.00083 5.74598 9 6.08267 9H9.83907C10.1215 9 10.2841 9.00053 10.406 9.00879C10.4807 9.01385 10.5119 9.02048 10.5201 9.02263C10.5702 9.04206 10.6147 9.07328 10.6501 9.11367C10.655 9.12066 10.6719 9.14772 10.7022 9.21632C10.7516 9.32801 10.8077 9.48061 10.9042 9.74602L26.8331 30.8617ZM26.8331 30.8617C26.8772 30.8363 26.9446 30.7639 26.9669 30.7177L26.9669 30.7176L26.967 30.7175L26.9673 30.7167C26.9677 30.7154 26.9691 30.7112 26.9711 30.703C26.9752 30.6854 26.9816 30.6508 26.9871 30.587C26.9992 30.4448 27 30.254 27 29.9173V26.1609C27 25.8785 26.9995 25.7159 26.9912 25.594C26.9861 25.5193 26.9795 25.4881 26.9774 25.4799C26.9579 25.4298 26.9267 25.3852 26.8863 25.3499C26.8793 25.345 26.8523 25.3281 26.7837 25.2978C26.672 25.2484 26.5194 25.1923 26.254 25.0958C26.254 25.0958 26.254 25.0958 26.2539 25.0958L21.9783 23.541C21.67 23.429 21.4898 23.3641 21.3518 23.3253C21.2674 23.3015 21.2301 23.297 21.22 23.2963C21.1605 23.3007 21.1029 23.321 21.0534 23.3556C21.0461 23.3625 21.02 23.3894 20.9695 23.4608C20.8869 23.5778 20.7878 23.7417 20.6191 24.023L20.6191 24.023L19.5242 25.8478C19.2629 26.2833 18.7167 26.4538 18.2541 26.2443C14.4993 24.5438 11.4584 21.4985 9.75602 17.7465C9.54609 17.2838 9.71648 16.7373 10.1522 16.4758L11.977 15.3809L11.977 15.3809C12.2583 15.2122 12.4222 15.1131 12.5392 15.0305C12.6106 14.9801 12.6375 14.9539 12.6444 14.9466C12.679 14.8971 12.6993 14.8395 12.7037 14.78C12.703 14.7699 12.6985 14.7326 12.6747 14.6482C12.6359 14.5102 12.5711 14.33 12.459 14.0218C12.459 14.0218 12.459 14.0218 12.459 14.0217L10.9042 9.74606L26.8331 30.8617ZM26.9767 25.4775C26.9766 25.4776 26.9768 25.4783 26.9773 25.4796L26.9767 25.4775ZM26.8883 25.3513C26.8883 25.3513 26.8878 25.3509 26.8865 25.35C26.8876 25.3509 26.8882 25.3513 26.8883 25.3513ZM12.7038 14.7829C12.7038 14.7829 12.7038 14.7822 12.7037 14.7806C12.7037 14.782 12.7037 14.7828 12.7038 14.7829ZM21.2171 23.2962C21.2171 23.2963 21.2179 23.2963 21.2194 23.2963C21.2178 23.2962 21.2171 23.2962 21.2171 23.2962ZM21.0557 23.3536C21.0557 23.3536 21.0551 23.354 21.0539 23.3552C21.055 23.3543 21.0556 23.3537 21.0557 23.3536ZM12.643 14.9487L12.6431 14.9485L12.643 14.9487ZM12.6464 14.9443C12.6463 14.9444 12.6458 14.945 12.6449 14.9461C12.646 14.9449 12.6464 14.9443 12.6464 14.9443ZM10.6487 9.11172C10.6487 9.11176 10.6491 9.1124 10.65 9.11347C10.6491 9.11221 10.6487 9.11167 10.6487 9.11172ZM10.5225 9.02334C10.5225 9.02332 10.5219 9.02309 10.5204 9.02269L10.5225 9.02334Z" stroke="black" stroke-width="2" stroke-linecap="round" stroke-linejoin="round"/>
</svg>
