<svg width="29" height="24" viewBox="0 0 29 24" fill="none" xmlns="http://www.w3.org/2000/svg">
<path fill-rule="evenodd" clip-rule="evenodd" d="M6.76976 14.5371C6.82866 14.5571 6.88811 14.5711 6.94751 14.5798C7.01229 14.7326 7.09598 14.9301 7.19362 15.161C7.43189 15.7247 7.75296 16.4872 8.08437 17.2825C8.76021 18.9046 9.44195 20.5767 9.59252 21.0553C9.77891 21.6469 9.97593 22.0492 10.191 22.3239C10.3022 22.4659 10.4308 22.5898 10.5813 22.6837C10.6571 22.731 10.7371 22.7697 10.8207 22.7986C10.8244 22.8 10.828 22.8012 10.8317 22.8024C11.2623 22.9655 11.655 22.8976 11.9008 22.8145C12.0323 22.77 12.1387 22.7164 12.2141 22.6729C12.2526 22.6507 12.2851 22.63 12.311 22.6125L12.3171 22.6084L16.1202 20.2294L20.5132 23.6077C20.578 23.6575 20.6487 23.6994 20.7236 23.7322C21.2513 23.9631 21.7624 24.0437 22.2431 23.9778C22.7231 23.9121 23.104 23.7099 23.3877 23.4822C23.6655 23.2593 23.8539 23.0096 23.9711 22.8241C24.0309 22.7294 24.0759 22.6455 24.1076 22.5814C24.1235 22.5492 24.1363 22.5214 24.1463 22.4991L24.1589 22.4697L24.1638 22.4581L24.1658 22.4532L24.1666 22.4509L24.1675 22.4487C24.1905 22.3908 24.2083 22.3309 24.2204 22.2698L28.2308 1.98795C28.2435 1.92309 28.25 1.85711 28.25 1.79098C28.25 1.19704 28.0269 0.632273 27.5024 0.289565C27.054 -0.00334768 26.5545 -0.015955 26.2389 0.00807192C25.8983 0.0340021 25.5838 0.118326 25.3728 0.185696C25.263 0.220764 25.1709 0.254591 25.1045 0.2804C25.0711 0.293372 25.0438 0.304508 25.0234 0.312998L25.0082 0.319451L2.51707 9.16966L2.51417 9.17074C2.49983 9.176 2.48143 9.18289 2.45956 9.19139C2.41601 9.2084 2.35765 9.23229 2.28949 9.26334C2.15657 9.32381 1.97009 9.41816 1.77872 9.54964C1.473 9.75967 0.769902 10.3348 0.888294 11.2842C0.982746 12.0416 1.49999 12.5067 1.81513 12.7304C1.98817 12.8532 2.15257 12.9409 2.2723 12.9982C2.32783 13.0246 2.44315 13.0716 2.49319 13.0921L2.50582 13.0973L6.76976 14.5371ZM25.7952 2.18383L25.7921 2.18521C25.7808 2.1901 25.7697 2.19477 25.7582 2.19925L3.2399 11.0602C3.22813 11.0648 3.21629 11.0693 3.20437 11.0735L3.19184 11.0782C3.17743 11.0839 3.15318 11.0937 3.12274 11.1075C3.10548 11.1153 3.08746 11.1239 3.06909 11.1331C3.09432 11.1474 3.11848 11.1597 3.13994 11.17C3.16054 11.1798 3.17626 11.1866 3.18486 11.1901L7.41378 12.6182C7.49118 12.6444 7.56334 12.6789 7.62957 12.7208L21.5933 4.52123L21.6063 4.51348C21.6164 4.50744 21.6299 4.4997 21.6459 4.49061C21.6776 4.47259 21.7212 4.44861 21.7732 4.42208C21.8701 4.37261 22.0252 4.29917 22.1999 4.24501C22.3214 4.20731 22.68 4.10109 23.0677 4.22583C23.307 4.30281 23.5547 4.46831 23.7159 4.74867C23.7959 4.88796 23.8385 5.02788 23.8592 5.15597C23.9141 5.35774 23.9054 5.55699 23.8625 5.729C23.7699 6.09954 23.5104 6.38857 23.2743 6.60964C23.0719 6.79917 20.454 9.33123 17.8716 11.8308C16.5836 13.0773 15.309 14.3116 14.3562 15.234L13.7304 15.8401L21.632 21.9168C21.8133 21.9818 21.9204 21.9786 21.9699 21.9717C22.029 21.9636 22.0773 21.9408 22.1267 21.9012C22.1819 21.857 22.2302 21.797 22.2662 21.7399L22.2677 21.7376L26.1574 2.06662C26.0996 2.08053 26.0412 2.09711 25.985 2.11506C25.9213 2.1354 25.8687 2.15479 25.834 2.16832C25.8166 2.17503 25.8043 2.18012 25.7975 2.18293L25.7952 2.18383ZM14.4092 18.9135L12.8327 17.7011L12.4508 20.1385L14.4092 18.9135ZM11.3866 15.2955L12.9542 13.7773C13.9071 12.8547 15.182 11.6204 16.4701 10.3737L17.7787 9.1073L9.00489 14.2593L9.05197 14.3707C9.29109 14.9364 9.61359 15.7022 9.94675 16.5018C10.1959 17.0996 10.4564 17.7292 10.6936 18.3121L11.0745 15.8818C11.1112 15.6475 11.2253 15.4447 11.3866 15.2955Z" fill="black"/>
</svg>
