<svg width="32" height="16" viewBox="0 0 32 16" fill="none" xmlns="http://www.w3.org/2000/svg">
<path d="M19.3369 5.95007H2.1543V8.77901H5.64561C5.25186 9.46458 5.02642 10.2464 5.02642 11.0762C5.02692 13.7958 7.41717 15.9986 10.3675 16H17.0023C19.9517 15.9986 22.3419 13.7958 22.3434 11.0762C22.3434 10.333 22.1588 9.63062 21.8384 8.99857C27.0919 9.95733 28.9421 13.7441 28.9421 13.7441V0.985489C28.9421 0.985489 26.5184 5.95007 19.3369 5.95007ZM19.0017 12.9192C18.4853 13.3929 17.7864 13.6824 17.0023 13.6833H10.3675C9.58292 13.6824 8.88348 13.3929 8.36817 12.9192C7.8538 12.4438 7.54023 11.7994 7.53973 11.0763C7.54023 10.353 7.8538 9.70868 8.36817 9.23322C8.56948 9.04811 8.80623 8.90201 9.0573 8.77907H18.3116C18.5631 8.90201 18.7994 9.04811 19.0017 9.23322C19.5151 9.70868 19.8292 10.353 19.8296 11.0763C19.8291 11.7994 19.515 12.4438 19.0017 12.9192Z" fill="black"/>
<path d="M30.9833 0C30.4216 0 29.9658 0.420158 29.9658 0.938255V13.7913C29.9658 14.3085 30.4216 14.7286 30.9833 14.7286H32.0001V0H30.9833Z" fill="black"/>
<path d="M1.43631 5.21416H0V9.51454H1.43631V5.21416Z" fill="black"/>
<path d="M9.66511 5.26993H10.7426C11.0896 5.26993 11.3707 5.01086 11.3707 4.6906C11.3707 4.37074 11.0896 4.1116 10.7426 4.1116H9.66511C9.31811 4.1116 9.03711 4.37068 9.03711 4.6906C9.03711 5.01086 9.31817 5.26993 9.66511 5.26993Z" fill="black"/>
<path d="M12.9865 5.26993H14.064C14.411 5.26993 14.692 5.01086 14.692 4.6906C14.692 4.37074 14.411 4.1116 14.064 4.1116H12.9865C12.6395 4.1116 12.3584 4.37068 12.3584 4.6906C12.3584 5.01086 12.6395 5.26993 12.9865 5.26993Z" fill="black"/>
<path d="M16.3082 5.26993H17.3857C17.7327 5.26993 18.0138 5.01086 18.0138 4.6906C18.0138 4.37074 17.7327 4.1116 17.3857 4.1116H16.3082C15.9612 4.1116 15.6797 4.37068 15.6797 4.6906C15.6797 5.01086 15.9612 5.26993 16.3082 5.26993Z" fill="black"/>
</svg>
