<svg width="28" height="24" viewBox="0 0 28 24" fill="none" xmlns="http://www.w3.org/2000/svg">
<path fill-rule="evenodd" clip-rule="evenodd" d="M27.7822 19.537C27.1443 17.7704 26.3037 16.1566 25.2929 14.7577C24.9489 14.2078 24.5455 13.6651 24.2306 13.2416L24.1866 13.1825C24.0242 12.9638 23.89 12.7824 23.7802 12.6261C25.1624 9.98332 26.3455 7.15356 27.3107 4.1803L27.3497 4.06034L27.377 3.93444C27.5038 3.34923 27.6499 2.2364 27.1331 1.23071C26.5988 0.191243 25.7434 0.0037749 25.1705 0.0037749H22.535C21.9857 -0.0308483 21.4416 0.173376 20.9807 0.58858C20.5162 1.00691 20.161 1.61712 19.9655 2.33042C19.3979 4.18928 18.6878 5.95739 17.8479 7.60514V3.35861C17.8479 2.80969 17.8104 1.89144 17.3828 1.11641C16.871 0.188437 16.1308 0.0037749 15.617 0.0037749H11.4352C10.8964 -0.0133513 10.3724 0.251524 9.96976 0.74599C9.55739 1.25236 9.30466 1.95969 9.2652 2.71798L9.26147 2.78981V2.86183C9.26147 3.64473 9.48709 4.22223 9.66734 4.58542C9.74805 4.74803 9.83437 4.89605 9.88889 4.98953L9.90148 5.01111C9.95962 5.1108 9.99843 5.17734 10.0374 5.25018C10.1398 5.4418 10.2872 5.73723 10.3289 6.50172V8.87706C9.60794 7.24754 8.84742 5.0791 8.27519 2.76315L8.2664 2.72761L8.25667 2.69253C8.11399 2.17872 7.88515 1.4311 7.42681 0.858986C6.89137 0.190631 6.25806 0.0037749 5.6821 0.0037749H3.00807C2.42539 0.0037749 1.72294 0.191212 1.1988 0.951439C0.683376 1.69904 0.625 2.59484 0.625 3.07113V3.28582L0.657885 3.49569C1.39854 8.22251 2.92467 12.649 5.11636 16.429C6.11002 18.5835 7.45645 20.3895 9.04853 21.702C10.666 23.0356 12.4908 23.8216 14.3725 23.9955L14.4215 24H14.4708C15.322 24 16.2095 23.8991 16.8769 23.2875C17.7772 22.4627 17.8479 21.1958 17.8479 20.5644V18.7294C18.0789 18.9862 18.3656 19.3319 18.7165 19.7965C19.1407 20.3803 19.4785 20.8862 19.7682 21.3277L19.9228 21.5641L19.9237 21.5654C20.1487 21.9099 20.3701 22.249 20.5717 22.5277C20.8251 22.8779 21.1376 23.264 21.5304 23.5491C21.9557 23.8579 22.402 23.9976 22.8762 23.9976H25.5521C26.1157 23.9976 26.9243 23.8142 27.4928 22.9081C28.1123 21.9205 28.065 20.7101 27.8702 19.8402L27.8351 19.6838L27.7822 19.537ZM21.0744 19.7073C20.7732 19.2482 20.41 18.704 19.9509 18.0729L19.9472 18.0678C18.3567 15.9593 17.6134 15.5919 17.088 15.5919C16.8085 15.5919 16.4992 15.6351 16.2986 15.9788C16.2038 16.141 16.1541 16.3368 16.1261 16.5408C16.0982 16.7444 16.0886 16.9836 16.0886 17.256V20.5644C16.0886 20.9753 16.0395 21.1479 15.9013 21.2747C15.7172 21.4433 15.3237 21.5801 14.4806 21.5811C12.8804 21.4311 11.3289 20.7617 9.95321 19.6275C8.57474 18.4911 7.41236 16.9205 6.56179 15.0454L6.55254 15.0251L6.54158 15.0062C4.49934 11.5111 3.07628 7.41119 2.38462 3.0303C2.38837 2.81911 2.42165 2.69382 2.47556 2.61561C2.53112 2.53503 2.66574 2.42272 3.00807 2.42272H5.6821C5.97955 2.42272 6.1335 2.51169 6.2443 2.64999C6.36991 2.80679 6.47886 3.07305 6.61121 3.54847C7.26755 6.20283 8.15511 8.68515 8.9956 10.5103C9.41569 11.4226 9.82913 12.182 10.2016 12.7185C10.3876 12.9865 10.5699 13.2084 10.744 13.3663C10.9124 13.519 11.1034 13.6395 11.2997 13.6395C11.4034 13.6395 11.5246 13.6248 11.6413 13.5537C11.7668 13.4774 11.8643 13.35 11.9331 13.1792C12.0548 12.8774 12.0882 12.4302 12.0882 11.8443V6.41988L12.0876 6.40715C12.0268 5.08747 11.737 4.34513 11.4548 3.81739C11.393 3.70173 11.332 3.59727 11.2786 3.50585L11.264 3.4808C11.2054 3.38034 11.1588 3.29916 11.1205 3.22196C11.0503 3.08052 11.0231 2.9819 11.0209 2.87623C11.03 2.7508 11.073 2.63441 11.1416 2.5502C11.2128 2.4628 11.3059 2.41729 11.4013 2.42272H15.617C15.8587 2.42272 15.9401 2.50381 15.9811 2.57808C16.0389 2.68294 16.0886 2.90101 16.0886 3.35861V10.6616C16.0886 11.529 16.3795 12.1164 16.8018 12.1164C17.2878 12.1164 17.6382 11.7109 18.2509 10.8685L18.2611 10.8545L18.2702 10.839C19.6434 8.53663 20.7657 5.97155 21.601 3.22435L21.6063 3.20375C21.6691 2.961 21.7879 2.75318 21.9447 2.61198C22.1014 2.4708 22.2875 2.40398 22.4744 2.42177L22.4846 2.42272H25.1705C25.5368 2.42272 25.6574 2.55091 25.6963 2.62672C25.7377 2.70737 25.7666 2.88023 25.6962 3.21922C24.7332 6.18067 23.5423 8.99172 22.1444 11.6051L22.1356 11.6235C21.9999 11.909 21.851 12.2247 21.8295 12.5872C21.8064 12.9765 21.9289 13.3305 22.1432 13.7098C22.2994 14.0273 22.6216 14.461 22.9485 14.9009L22.9793 14.9423C23.322 15.4035 23.6932 15.9031 23.9912 16.3869L23.9992 16.3997L24.0079 16.4116C24.8963 17.6301 25.6351 19.0387 26.1954 20.5824C26.2849 21.0026 26.2301 21.2174 26.1605 21.3282C26.0793 21.4578 25.897 21.5786 25.5521 21.5786H22.8762C22.6672 21.5786 22.506 21.522 22.3518 21.4101C22.1913 21.2935 22.0261 21.1081 21.819 20.8218C21.6522 20.5912 21.47 20.3122 21.2476 19.9721C21.1925 19.8878 21.1349 19.7994 21.0744 19.7073Z" fill="black" stroke="black" stroke-width="0.00064"/>
</svg>
