<svg width="28" height="24" viewBox="0 0 28 24" fill="none" xmlns="http://www.w3.org/2000/svg">
<path d="M23.7833 3.48006C22.5282 2.3722 21.0343 1.49403 19.3886 0.896594C17.7427 0.299161 15.9776 -0.0055777 14.1961 7.72832e-05C11.8145 0.00211728 9.47517 0.552375 7.41259 1.59574C5.35001 2.63911 3.63654 4.13897 2.44371 5.94509C1.25089 7.75124 0.620628 9.8003 0.616006 11.8869C0.6114 13.9737 1.23262 16.0248 2.41745 17.835L0.5 24L7.69043 22.35C9.67593 23.3178 11.9069 23.8337 14.1789 23.85C17.7908 23.8502 21.2564 22.6002 23.8213 20.3724C26.3864 18.1448 27.8433 15.1194 27.875 11.955C27.863 10.376 27.4953 8.81457 26.7932 7.36026C26.0911 5.90595 25.0682 4.58736 23.7833 3.48006ZM14.1961 21.795C12.172 21.7962 10.1848 21.3195 8.44372 20.415L8.03283 20.19L3.76993 21.18L4.89986 17.535L4.62594 17.16C3.16945 15.1001 2.62587 12.6435 3.09818 10.2559C3.57049 7.86824 5.02588 5.7153 7.18864 4.20491C9.35142 2.6945 12.0713 1.93156 14.8331 2.0606C17.5949 2.18963 20.2069 3.2017 22.174 4.90506C24.3243 6.74734 25.5552 9.26031 25.598 11.895C25.571 14.5289 24.3577 17.0468 22.2223 18.9009C20.0871 20.7549 17.2023 21.7952 14.1961 21.795ZM20.3764 14.385C20.034 14.235 18.3734 13.515 18.0652 13.425C17.757 13.335 17.5174 13.275 17.2948 13.575C16.9599 13.9772 16.5997 14.3627 16.2162 14.73C16.0279 14.94 15.8225 14.955 15.4801 14.73C13.5279 14.0541 11.9015 12.8091 10.8748 11.205C10.5152 10.6801 11.2172 10.7101 11.8677 9.58506C11.9158 9.50391 11.9408 9.41391 11.9408 9.32256C11.9408 9.23121 11.9158 9.14121 11.8677 9.06006C11.8677 8.91004 11.0973 7.44005 10.8234 6.85505C10.5495 6.27005 10.2756 6.36005 10.053 6.34505H9.38532C9.21232 6.34738 9.04189 6.38204 8.88541 6.44671C8.72893 6.51137 8.59002 6.60457 8.47795 6.72005C8.09381 7.04732 7.7942 7.44293 7.59928 7.88021C7.40437 8.31749 7.3187 8.78629 7.34803 9.25506C7.45537 10.3772 7.9377 11.4467 8.73476 12.33C10.1937 14.2437 12.1932 15.794 14.5385 16.83C15.7685 17.4591 17.1981 17.7222 18.613 17.58C19.0842 17.4981 19.5305 17.3303 19.9227 17.0873C20.3151 16.8444 20.6447 16.5318 20.89 16.17C21.1174 15.7284 21.1889 15.2375 21.0955 14.76C20.9414 14.61 20.7188 14.535 20.3764 14.385Z" fill="black"/>
</svg>
