<svg width="28" height="24" viewBox="0 0 28 24" fill="none" xmlns="http://www.w3.org/2000/svg">
<path fill-rule="evenodd" clip-rule="evenodd" d="M11.8058 6.21358C11.4998 5.99278 11.1187 5.98699 10.8081 6.19845C10.4976 6.4099 10.3057 6.8059 10.3057 7.23506V16.7649C10.3057 17.1941 10.4976 17.5902 10.8081 17.8016C11.1187 18.013 11.4998 18.0073 11.8058 17.7865L18.4089 13.0216C18.7072 12.8062 18.8897 12.4185 18.8897 12C18.8897 11.5816 18.7072 11.1939 18.4089 10.9785L11.8058 6.21358ZM15.9742 12L12.2866 14.661V9.33905L15.9742 12Z" fill="black"/>
<path fill-rule="evenodd" clip-rule="evenodd" d="M20.5811 0.31208C16.1588 -0.104027 11.7162 -0.104027 7.2939 0.31208L4.33478 0.59051C2.53534 0.759824 1.06325 2.38183 0.765797 4.52293C0.0780677 9.47329 0.0780677 14.5267 0.765797 19.4771C1.06325 21.6182 2.53534 23.2402 4.33478 23.4095L7.2939 23.6879C11.7162 24.104 16.1588 24.104 20.5811 23.6879L23.5403 23.4095C25.3396 23.2402 26.8117 21.6182 27.1093 19.4771C27.7969 14.5267 27.7969 9.47329 27.1093 4.52293C26.8117 2.38183 25.3396 0.759824 23.5403 0.59051L20.5811 0.31208ZM7.44842 2.68729C11.7679 2.28086 16.1071 2.28086 20.4266 2.68729L23.3858 2.96572C24.278 3.04968 25.0079 3.85392 25.1554 4.91557C25.807 9.60608 25.807 14.394 25.1554 19.0845C25.0079 20.1461 24.278 20.9504 23.3858 21.0343L20.4266 21.3127C16.1071 21.7192 11.7678 21.7192 7.44842 21.3127L4.48929 21.0343C3.59706 20.9504 2.86714 20.1461 2.71965 19.0845C2.06804 14.394 2.06804 9.60608 2.71965 4.91557C2.86714 3.85392 3.59706 3.04968 4.48929 2.96572L7.44842 2.68729Z" fill="black"/>
</svg>
